
<global>
amp_veltrack=0
ampeg_release=15.0
</global>

<group>
group_label=RR1
seq_length=2

<region>
hivel=103
key=D3
lovel=78
offset=11173
sample=Piatti_Hit_F_D4_RR1.opus
</region>

<region>
hivel=127
key=D3
lovel=104
offset=1055
sample=Piatti_Hit_FF_D4_RR1.opus
</region>

<region>
hivel=77
key=D3
lovel=52
offset=8112
sample=Piatti_Hit_MF_D4_RR1.opus
</region>

<region>
hivel=51
key=D3
lovel=26
offset=14174
sample=Piatti_Hit_MP_D4_RR1.opus
volume=6.0
</region>

<region>
end=485245
hivel=25
key=D3
lovel=0
offset=14435
sample=Piatti_Hit_P_D4_RR1.opus
volume=6.0
</region>
</group>

<group>
group_label=RR2
seq_length=2
seq_position=2

<region>
hivel=103
key=D3
lovel=78
offset=8886
sample=Piatti_Hit_F_D4_RR2.opus
</region>

<region>
hivel=127
key=D3
lovel=104
offset=653
sample=Piatti_Hit_FF_D4_RR2.opus
</region>

<region>
hivel=77
key=D3
lovel=52
offset=1240
sample=Piatti_Hit_MF_D4_RR2.opus
</region>

<region>
hivel=51
key=D3
lovel=26
offset=14052
sample=Piatti_Hit_MP_D4_RR2.opus
volume=6.0
</region>

<region>
hivel=25
key=D3
lovel=0
offset=15561
sample=Piatti_Hit_P_D4_RR2.opus
volume=6.0
</region>
</group>